<svg xmlns="http://www.w3.org/2000/svg" viewBox="0 0 400 110">
  <defs>
    <radialGradient id="g1" cx="50%" cy="50%" r="50%">
      <stop offset="0%" stop-color="#6366f1" stop-opacity="0.3"/>
      <stop offset="100%" stop-color="#6366f1" stop-opacity="0"/>
    </radialGradient>
    <radialGradient id="g2" cx="50%" cy="50%" r="50%">
      <stop offset="0%" stop-color="#00d68f" stop-opacity="0.25"/>
      <stop offset="100%" stop-color="#00d68f" stop-opacity="0"/>
    </radialGradient>
  </defs>

  <!-- pozadí karty -->
  <rect width="400" height="110" rx="18" fill="#07080f"/>
  <rect width="400" height="110" rx="18" fill="none" stroke="#1a1a3e" stroke-width="1.5"/>
  <ellipse cx="80" cy="55" rx="50" ry="50" fill="url(#g1)" opacity="0.6"/>

  <!-- ikona iC -->
  <rect x="16" y="12" width="70" height="86" rx="14" fill="#0e0f23"/>
  <rect x="16" y="12" width="70" height="86" rx="14" fill="none" stroke="#6366f1" stroke-width="1" opacity="0.6"/>
  <text x="51" y="65" font-family="system-ui, sans-serif" font-size="30" font-weight="700" fill="white" text-anchor="middle" letter-spacing="-2">iC</text>
  <rect x="26" y="78" width="50" height="3" rx="2" fill="#00d68f"/>

  <!-- wordmark -->
  <text x="104" y="50" font-family="system-ui, sans-serif" font-size="28" font-weight="700" fill="white">Invoi<tspan fill="#6366f1">Czech</tspan></text>
  <text x="104" y="72" font-family="system-ui, sans-serif" font-size="12" fill="#94a3b8">Fakturační systém pro OSVČ</text>

  <!-- faktura ikona vpravo -->
  <ellipse cx="340" cy="55" rx="32" ry="32" fill="url(#g2)" opacity="0.4"/>
  <rect x="316" y="22" width="48" height="62" rx="6" fill="#0e0f23"/>
  <rect x="316" y="22" width="48" height="62" rx="6" fill="none" stroke="#6366f1" stroke-width="1" opacity="0.5"/>
  <rect x="316" y="22" width="48" height="13" rx="6" fill="#6366f1" opacity="0.6"/>
  <rect x="324" y="44" width="32" height="3" rx="1.5" fill="#94a3b8" opacity="0.5"/>
  <rect x="324" y="51" width="24" height="3" rx="1.5" fill="#94a3b8" opacity="0.4"/>
  <rect x="324" y="58" width="28" height="3" rx="1.5" fill="#94a3b8" opacity="0.3"/>
  <circle cx="352" cy="74" r="9" fill="#00d68f"/>
  <path d="M347 74 L351 78 L358 68" fill="none" stroke="#07080f" stroke-width="2" stroke-linecap="round" stroke-linejoin="round"/>
</svg>